<?xml version="1.0" encoding="iso-8859-1"?>
<!-- Generator: Adobe Illustrator 19.0.0, SVG Export Plug-In . SVG Version: 6.00 Build 0)  -->
<svg version="1.1" id="Layer_1" xmlns="http://www.w3.org/2000/svg" xmlns:xlink="http://www.w3.org/1999/xlink" x="0px" y="0px"
	 viewBox="0 0 511.816 511.816" style="enable-background:new 0 0 511.816 511.816;" xml:space="preserve">
<path d="M511.644,255.808c0-0.064-0.008-0.12-0.008-0.184h-0.008c-0.104-70.496-28.688-134.312-74.88-180.552
	C390.412,28.688,326.38,0,255.636,0v255.624v0.56v255.624c70.736,0,134.776-28.696,181.112-75.072
	c46.192-46.24,74.776-110.056,74.88-180.552h0.008c0-0.064,0.008-0.12,0.008-0.184c0-0.032,0-0.064,0-0.096
	C511.644,255.872,511.644,255.84,511.644,255.808z"/>
<path style="fill:#E2E2E2;" d="M75.068,75.08C28.876,121.32,0.292,185.136,0.188,255.632H0.18c0,0.064-0.008,0.12-0.008,0.184
	c0,0.032,0,0.064,0,0.096c0,0.032,0,0.064,0,0.096c0,0.064,0.008,0.12,0.008,0.184h0.008c0.104,70.496,28.688,134.312,74.88,180.552
	c46.336,46.384,110.368,75.072,181.112,75.072V256.184v-0.56V0C185.436,0,121.396,28.696,75.068,75.08z"/>
<path d="M112.412,307.328h18.36V199.344l-19.656,17.328l-10.384-12.144L136.7,167.08h17.888l-0.096,0.176l0.096-0.088V307.32h18.256
	v18.08h-60.44v-18.072H112.412z"/>
<path style="fill:#E21B1B;" d="M337.78,311.32l34.944-67.296c3.216-6.128,5.832-11.472,7.832-16.04
	c2-4.568,3.584-8.576,4.728-12.008c1.144-3.432,1.928-6.408,2.368-8.944c0.432-2.528,0.648-4.824,0.648-6.856
	c0-3.208-0.296-5.912-0.88-8.112c-0.584-2.184-1.456-3.952-2.592-5.28c-1.152-1.328-2.568-2.272-4.264-2.832
	c-1.704-0.552-3.664-0.832-5.888-0.832c-5.44,0-9.376,2.24-11.816,6.728c-2.448,4.48-3.664,10.92-3.664,19.32v8.992H340.66
	c-0.68-3.464-1.264-6.624-1.76-9.504c-0.496-2.872-0.744-6.008-0.744-9.408c0-4.016,0.696-8.016,2.088-12.008
	c1.392-3.984,3.56-7.584,6.528-10.8s6.752-5.808,11.36-7.792c4.6-1.976,10.12-2.96,16.536-2.96c6.92,0,12.84,0.808,17.76,2.408
	c4.904,1.608,8.944,3.952,12.096,7.048s5.456,6.856,6.904,11.304c1.456,4.456,2.176,9.496,2.176,15.112
	c0,3.216-0.296,6.384-0.88,9.504s-1.56,6.456-2.92,10.008s-3.12,7.432-5.28,11.632c-2.16,4.2-4.824,9.024-7.968,14.464
	l-31.24,59.328h46.256V325.4H337.78L337.78,311.32L337.78,311.32z"/>
<g>
</g>
<g>
</g>
<g>
</g>
<g>
</g>
<g>
</g>
<g>
</g>
<g>
</g>
<g>
</g>
<g>
</g>
<g>
</g>
<g>
</g>
<g>
</g>
<g>
</g>
<g>
</g>
<g>
</g>
</svg>
