<?xml version="1.0" encoding="iso-8859-1"?>
<!-- Generator: Adobe Illustrator 18.0.0, SVG Export Plug-In . SVG Version: 6.00 Build 0)  -->
<!DOCTYPE svg PUBLIC "-//W3C//DTD SVG 1.1//EN" "http://www.w3.org/Graphics/SVG/1.1/DTD/svg11.dtd">
<svg version="1.1" id="Capa_1" xmlns="http://www.w3.org/2000/svg" xmlns:xlink="http://www.w3.org/1999/xlink" x="0px" y="0px"
	 viewBox="0 0 418.795 418.795" style="enable-background:new 0 0 418.795 418.795;" xml:space="preserve">
<g>
	<g>
		
			<rect x="175.049" y="88.525" transform="matrix(0.7071 0.7071 -0.7071 0.7071 209.2187 -128.311)" style="fill:none;" width="168.891" height="199.738"/>
		<polygon style="fill:#73D0F4;" points="28.971,299.493 95.18,365.702 201.609,365.702 231.617,335.695 112.193,216.271 		"/>
		<path style="fill:#3D6889;" d="M406.795,365.702H235.551l179.731-179.729c4.686-4.688,4.686-12.285,0-16.971L278.887,32.607
			c-2.252-2.25-5.303-3.514-8.486-3.514c-3.182,0-6.234,1.264-8.484,3.514L3.516,291.009c-4.688,4.686-4.688,12.283,0,16.971
			l78.209,78.207c2.25,2.252,5.303,3.516,8.484,3.516h316.586c6.627,0,12-5.373,12-12
			C418.795,371.075,413.422,365.702,406.795,365.702z M270.4,58.064l119.424,119.424L248.588,318.724L129.165,199.3L270.4,58.064z
			 M201.609,365.702H95.18l-66.209-66.209l83.223-83.223l119.424,119.424L201.609,365.702z"/>
	</g>
</g>
<g>
</g>
<g>
</g>
<g>
</g>
<g>
</g>
<g>
</g>
<g>
</g>
<g>
</g>
<g>
</g>
<g>
</g>
<g>
</g>
<g>
</g>
<g>
</g>
<g>
</g>
<g>
</g>
<g>
</g>
</svg>
