<?xml version="1.0" encoding="iso-8859-1"?>
<!-- Generator: Adobe Illustrator 19.0.0, SVG Export Plug-In . SVG Version: 6.00 Build 0)  -->
<svg version="1.1" id="Layer_1" xmlns="http://www.w3.org/2000/svg" xmlns:xlink="http://www.w3.org/1999/xlink" x="0px" y="0px"
	 viewBox="0 0 512.309 512.309" style="enable-background:new 0 0 512.309 512.309;" xml:space="preserve">
<g>
	<path style="fill:#A47549;" d="M415.205,141.396c0-19.5-15.81-35.31-35.31-35.31H264.827L220.689,53.12H61.792
		c-14.627,0-26.483,11.855-26.483,26.483v61.793H415.205z"/>
	<path style="fill:#F4A551;" d="M467.862,167.879v264.828c0,14.627-11.855,26.483-26.483,26.483H26.174
		C11.546,459.189,0,447.333,0,432.706V167.879c0-14.627,11.546-26.483,26.174-26.483h415.206
		C456.007,141.396,467.862,153.251,467.862,167.879"/>
	<path style="fill:#A47549;" d="M477.09,176.706c22.475,0,39.194,20.771,34.392,42.726l-43.617,204.447V176.706H477.09z"/>
	<path style="fill:#546A79;" d="M291.31,229.672L291.31,229.672c0-9.754-7.901-17.655-17.655-17.655h-79.448
		c-9.754,0-17.655,7.901-17.655,17.655l0,0c0,9.754-7.901,17.655-17.655,17.655h-8.828c-14.627,0-26.483,11.855-26.483,26.483
		v88.276c0,14.627,11.855,26.483,26.483,26.483h168.386c14.627,0,26.483-11.855,26.483-26.483V273.81
		c0-14.627-11.855-26.483-26.483-26.483h-9.49C299.211,247.327,291.31,239.426,291.31,229.672"/>
	<path style="fill:#FFFFFF;" d="M264.828,309.12c0,14.627-11.855,26.483-26.483,26.483c-14.627,0-26.483-11.855-26.483-26.483
		c0-14.627,11.855-26.483,26.483-26.483C252.972,282.637,264.828,294.493,264.828,309.12"/>
</g>
<g>
</g>
<g>
</g>
<g>
</g>
<g>
</g>
<g>
</g>
<g>
</g>
<g>
</g>
<g>
</g>
<g>
</g>
<g>
</g>
<g>
</g>
<g>
</g>
<g>
</g>
<g>
</g>
<g>
</g>
</svg>
