<?xml version="1.0" encoding="iso-8859-1"?>
<!-- Generator: Adobe Illustrator 19.0.0, SVG Export Plug-In . SVG Version: 6.00 Build 0)  -->
<svg version="1.1" id="Layer_1" xmlns="http://www.w3.org/2000/svg" xmlns:xlink="http://www.w3.org/1999/xlink" x="0px" y="0px"
	 viewBox="0 0 511.999 511.999" style="enable-background:new 0 0 511.999 511.999;" xml:space="preserve">
<path style="fill:#E2E5E7;" d="M463.717,64.26H48.282c-8.828,0-15.978,7.15-15.978,15.978V431.76c0,8.828,7.15,15.978,15.978,15.978
	h415.435c8.828,0,15.978-7.15,15.978-15.978V80.238C479.695,71.41,472.537,64.26,463.717,64.26z M447.739,415.782H64.26V96.216
	h383.479V415.782z"/>
<rect x="64.228" y="96.185" style="fill:#70B7E5;" width="383.479" height="319.566"/>
<g>
	<path style="fill:#566D7E;" d="M64.26,355.864l58.241-80.93c5.161-7.158,15.147-8.78,22.306-3.619
		c1.606,1.158,2.98,2.604,4.058,4.258l91.156,140.209H64.26C64.26,415.782,64.26,355.864,64.26,355.864z"/>
	<path style="fill:#566D7E;" d="M447.739,415.782H255.999l98.266-147.32c4.825-7.39,14.724-9.475,22.114-4.65
		c1.853,1.214,3.443,2.796,4.65,4.65l66.709,105.377V415.782z"/>
</g>
<path style="fill:#3F556B;" d="M351.31,310.246l56.483,105.537h-15.978l-61.516-111.848l0,0c7.23-4.154,16.458-1.662,20.612,5.576
	C351.046,309.75,351.182,309.99,351.31,310.246z"/>
<path style="fill:#566D7E;" d="M136.162,415.782l113.845-206.359c4.274-7.718,13.997-10.522,21.714-6.248
	c2.628,1.454,4.793,3.619,6.248,6.248l113.845,206.359H136.162z"/>
<path style="fill:#3F556B;" d="M184.097,329.34c9.036-5.017,20.428-1.893,25.645,7.03l46.257,79.412h-15.978L184.097,329.34
	L184.097,329.34z"/>
<g>
	<path style="fill:#8FAEBF;" d="M444.144,64.26l-5.752-27.243c-1.622-8.676-9.962-14.396-18.639-12.775
		c-0.128,0.024-0.256,0.048-0.375,0.072L233.31,64.26H444.144z"/>
	<path style="fill:#8FAEBF;" d="M32.303,107.002l-19.254,4.074c-8.676,1.622-14.396,9.962-12.775,18.639
		c0.024,0.128,0.048,0.256,0.072,0.376l31.957,149.397V107.002z"/>
	<path style="fill:#8FAEBF;" d="M67.855,447.739l5.752,27.243c1.622,8.676,9.962,14.396,18.639,12.775
		c0.128-0.024,0.256-0.048,0.375-0.072l186.067-39.946H67.855z"/>
	<path style="fill:#8FAEBF;" d="M511.652,381.908l-31.957-149.397v172.486l19.254-4.074c8.676-1.622,14.396-9.962,12.775-18.639
		C511.7,382.156,511.676,382.028,511.652,381.908z"/>
</g>
<g>
	<path style="fill:#FFFFFF;" d="M327.902,160.13c0-8.828-7.15-15.978-15.97-15.986c-6.263,0-11.952,3.651-14.548,9.355
		c-5.872-3.06-13.11-0.783-16.17,5.089c-3.06,5.872-0.783,13.11,5.089,16.17c1.742,0.911,3.683,1.374,5.648,1.358h35.951
		c4.41,0,7.989-3.579,7.989-7.989C335.891,163.717,332.312,160.13,327.902,160.13z"/>
	<path style="fill:#FFFFFF;" d="M407.793,184.097c0-8.828-7.15-15.978-15.97-15.986c-6.263,0-11.952,3.651-14.548,9.355
		c-5.872-3.06-13.11-0.783-16.17,5.089c-3.06,5.872-0.783,13.11,5.089,16.17c1.742,0.911,3.683,1.374,5.648,1.358h35.951
		c4.41,0,7.989-3.579,7.989-7.989C415.782,187.684,412.203,184.097,407.793,184.097z"/>
</g>
<path style="fill:#F6B545;" d="M184.097,168.119h-7.989h-1.039c-0.823-2.812-2.037-5.505-3.595-7.989
	c0.304-0.192,0.599-0.407,0.879-0.639l5.672-5.672c2.868-3.347,2.477-8.397-0.871-11.265c-2.988-2.565-7.406-2.565-10.394,0
	l-5.672,5.672c-0.232,0.28-0.447,0.575-0.639,0.879c-2.588-1.558-5.385-2.74-8.309-3.515c0.048-0.479,0.048-0.959,0-1.438v-7.989
	c0-4.41-3.579-7.989-7.989-7.989s-7.989,3.579-7.989,7.989v7.989c-0.024,0.344-0.024,0.695,0,1.039
	c-3.012,0.767-5.896,1.981-8.548,3.595c-0.192-0.336-0.399-0.655-0.639-0.959l-5.672-5.672c-3.347-2.868-8.397-2.477-11.265,0.871
	c-2.565,2.988-2.565,7.406,0,10.394l5.672,5.672c0.304,0.24,0.623,0.447,0.959,0.639c-1.614,2.652-2.828,5.536-3.595,8.548
	l-0.879-0.16h-7.989c-4.41,0-7.989,3.579-7.989,7.989c0,4.41,3.579,7.989,7.989,7.989h7.989h1.039
	c0.767,3.012,1.981,5.896,3.595,8.548c-0.336,0.192-0.655,0.399-0.959,0.639l-5.672,5.672c-3.347,2.868-3.739,7.917-0.871,11.265
	c2.868,3.347,7.917,3.739,11.265,0.871c0.312-0.264,0.607-0.559,0.871-0.871l5.672-5.672c0.368-0.208,0.711-0.447,1.039-0.719
	c2.652,1.614,5.536,2.828,8.548,3.595c-0.2,0.2-0.383,0.415-0.559,0.639v7.989c0,4.41,3.579,7.989,7.989,7.989
	s7.989-3.579,7.989-7.989v-7.989c0.024-0.344,0.024-0.695,0-1.039c2.796-0.695,5.489-1.766,7.989-3.196
	c0.192,0.336,0.399,0.655,0.639,0.959l5.672,5.672c3.347,2.868,8.397,2.477,11.265-0.871c2.565-2.988,2.565-7.406,0-10.394
	l-5.672-5.672c-0.304-0.24-0.623-0.447-0.959-0.639c1.774-2.708,3.124-5.672,3.995-8.788h1.039h7.989
	c4.41,0,7.989-3.579,7.989-7.989C192.086,171.698,188.507,168.119,184.097,168.119z"/>
<polygon style="fill:#7B9CB1;" points="201.833,464.116 276.931,448.138 67.935,448.138 71.37,464.116 "/>
<g>
	<path style="fill:#CAD1D8;" d="M463.717,96.216v327.555c0,4.41-3.579,7.989-7.989,7.989H64.26c-8.828,0-15.978,7.15-15.978,15.978
		h415.435c8.828,0,15.978-7.15,15.978-15.978V80.238l0,0C470.867,80.238,463.717,87.388,463.717,96.216z"/>
	<path style="fill:#CAD1D8;" d="M64.26,415.782V96.216h383.479c0-8.828-7.15-15.978-15.978-15.978H56.271
		c-4.41,0-7.989,3.579-7.989,7.989v311.576C48.282,408.624,55.432,415.782,64.26,415.782L64.26,415.782z"/>
</g>
<g>
</g>
<g>
</g>
<g>
</g>
<g>
</g>
<g>
</g>
<g>
</g>
<g>
</g>
<g>
</g>
<g>
</g>
<g>
</g>
<g>
</g>
<g>
</g>
<g>
</g>
<g>
</g>
<g>
</g>
</svg>
