<?xml version="1.0" encoding="iso-8859-1"?>
<!-- Generator: Adobe Illustrator 19.0.0, SVG Export Plug-In . SVG Version: 6.00 Build 0)  -->
<svg version="1.1" id="Layer_1" xmlns="http://www.w3.org/2000/svg" xmlns:xlink="http://www.w3.org/1999/xlink" x="0px" y="0px"
	 viewBox="0 0 512.149 512.149" style="enable-background:new 0 0 512.149 512.149;" xml:space="preserve">
<path style="fill:#BC342E;" d="M282.493,194.207c0-15.007-11.476-26.483-26.483-26.483s-26.483,11.476-26.483,26.483
	c0,15.007,11.476,26.483,26.483,26.483S282.493,209.214,282.493,194.207"/>
<g>
	<path style="fill:#E15649;" d="M249.831,219.807c-11.476-2.648-20.303-13.241-20.303-25.6c0-8.828,4.414-16.772,11.476-22.069
		l-37.959-30.897l-35.31,26.483l35.31,35.31c-18.538,18.538-32.662,43.255-44.138,67.09
		c-24.717,55.614-24.717,135.945,10.593,195.972c9.71,16.772,16.772,29.131,24.717,38.841c7.062,8.828,21.186,9.71,29.131,1.766l0,0
		c7.062-7.062,7.945-16.772,2.648-24.717c-31.779-49.435-40.607-76.8-40.607-128.883
		C185.389,309.848,233.058,242.759,249.831,219.807"/>
	<path style="fill:#E15649;" d="M344.286,252.469c-9.71-17.655-21.186-35.31-35.31-49.434l35.31-35.31l-35.31-26.483L271.9,172.138
		c6.179,5.297,10.593,13.241,10.593,22.069c0,12.359-8.828,22.952-20.303,25.6c17.655,22.952,64.441,90.041,64.441,133.297
		c0,52.083-8.828,79.448-41.49,128c-5.297,7.945-4.414,18.538,2.648,24.717l0,0c7.945,7.945,22.069,7.945,29.131-1.766
		c4.414-5.297,9.71-12.359,15.007-20.303C383.127,411.366,379.596,318.676,344.286,252.469"/>
</g>
<path style="fill:#E0E0E0;" d="M247.182,97.103c-5.297,0-8.828-3.531-8.828-8.828V70.621c0-5.297,3.531-8.828,8.828-8.828h8.828V0
	h-17.655l-52.966,88.276l26.483,35.31v24.717l28.248,22.952l0.883,0.883c5.297-2.648,8.828-4.414,15.007-4.414V97.103H247.182z"/>
<path style="fill:#C3C7CB;" d="M273.665,0H256.01v61.793h8.828c5.297,0,8.828,3.531,8.828,8.828v17.655
	c0,5.297-3.531,8.828-8.828,8.828h-8.828v70.621c6.179,0,11.476,0.883,15.89,4.414l0,0l28.248-23.834v-24.717l26.483-35.31
	L273.665,0z"/>
<g>
</g>
<g>
</g>
<g>
</g>
<g>
</g>
<g>
</g>
<g>
</g>
<g>
</g>
<g>
</g>
<g>
</g>
<g>
</g>
<g>
</g>
<g>
</g>
<g>
</g>
<g>
</g>
<g>
</g>
</svg>
