<?xml version="1.0" encoding="iso-8859-1"?>
<!-- Generator: Adobe Illustrator 19.0.0, SVG Export Plug-In . SVG Version: 6.00 Build 0)  -->
<svg version="1.1" id="Capa_1" xmlns="http://www.w3.org/2000/svg" xmlns:xlink="http://www.w3.org/1999/xlink" x="0px" y="0px"
	 viewBox="0 0 399.971 399.971" style="enable-background:new 0 0 399.971 399.971;" xml:space="preserve">
<g>
	<g id="Guides_For_Artboard_9_">
	</g>
	<g id="Artwork_9_">
	</g>
	<g id="Layer_2_9_">
		<g>
			<path style="fill:#F7F1E6;" d="M303.065,68.767c-16.316,0-29.541-13.226-29.541-29.543V1.105l34.92,33.815L273.524,0h-73.539
				H87.223C70.909,0,57.682,13.227,57.682,29.542v340.887c0,16.315,13.227,29.542,29.541,29.542h112.762h112.761
				c16.315,0,29.543-13.227,29.543-29.542V68.767h-1.07H303.065z M147.598,71.483c0-5.781,4.688-10.468,10.468-10.468h16.622v-16.62
				c0-5.782,4.688-10.47,10.47-10.47h0.954h6.047c5.785,0,10.472,4.688,10.472,10.47v16.621h16.62c5.783,0,10.47,4.687,10.47,10.468
				v7.004c0,5.781-4.687,10.468-10.47,10.468h-16.62v16.623c0,5.783-4.687,10.471-10.472,10.471h-6.047h-0.954
				c-5.781,0-10.47-4.688-10.47-10.471V88.956h-16.622c-5.78,0-10.468-4.687-10.468-10.468L147.598,71.483L147.598,71.483z
				 M96.96,145.371c0-5.277,4.275-9.555,9.553-9.555h31.531c5.277,0,9.555,4.277,9.555,9.555v31.528
				c0,5.277-4.277,9.555-9.555,9.555h-31.531c-5.277,0-9.553-4.277-9.553-9.555V145.371z M307.493,320.121H103.931
				c-2.661,0-4.819-2.158-4.819-4.82s2.158-4.819,4.819-4.819h203.562c2.662,0,4.819,2.157,4.819,4.819
				S310.155,320.121,307.493,320.121z M307.493,276.332H103.931c-2.661,0-4.819-2.158-4.819-4.82c0-2.661,2.158-4.819,4.819-4.819
				h203.562c2.662,0,4.819,2.158,4.819,4.819C312.312,274.174,310.155,276.332,307.493,276.332z M307.493,230.43H103.931
				c-2.661,0-4.819-2.157-4.819-4.819c0-2.663,2.158-4.82,4.819-4.82h203.562c2.662,0,4.819,2.157,4.819,4.82
				C312.312,228.272,310.155,230.43,307.493,230.43z M307.493,184.527H163.411c-2.661,0-4.82-2.158-4.82-4.819
				c0-2.662,2.159-4.821,4.82-4.821h144.082c2.662,0,4.819,2.159,4.819,4.821C312.312,182.369,310.155,184.527,307.493,184.527z"/>
			<path style="fill:#E0DCD3;" d="M273.524,39.224c0,16.317,13.225,29.543,29.541,29.543h38.153h1.07l-33.845-33.846l-34.92-34.92
				L273.524,39.224L273.524,39.224z"/>
			<path style="fill:#DEC8AE;" d="M106.512,186.454h31.531c5.277,0,9.555-4.277,9.555-9.555v-31.528
				c0-5.277-4.277-9.555-9.555-9.555h-31.531c-5.277,0-9.553,4.277-9.553,9.555v31.528
				C96.96,182.177,101.235,186.454,106.512,186.454z"/>
			<path style="fill:#DEC8AE;" d="M307.493,174.887H163.411c-2.661,0-4.82,2.159-4.82,4.821c0,2.661,2.159,4.819,4.82,4.819h144.082
				c2.662,0,4.819-2.158,4.819-4.819C312.312,177.046,310.155,174.887,307.493,174.887z"/>
			<path style="fill:#DEC8AE;" d="M307.493,220.79H103.931c-2.661,0-4.819,2.157-4.819,4.82c0,2.662,2.158,4.819,4.819,4.819
				h203.562c2.662,0,4.819-2.157,4.819-4.819C312.312,222.947,310.155,220.79,307.493,220.79z"/>
			<path style="fill:#DEC8AE;" d="M307.493,266.692H103.931c-2.661,0-4.819,2.158-4.819,4.819c0,2.662,2.158,4.82,4.819,4.82
				h203.562c2.662,0,4.819-2.158,4.819-4.82C312.312,268.851,310.155,266.692,307.493,266.692z"/>
			<path style="fill:#DEC8AE;" d="M307.493,310.481H103.931c-2.661,0-4.819,2.157-4.819,4.819s2.158,4.82,4.819,4.82h203.562
				c2.662,0,4.819-2.158,4.819-4.82S310.155,310.481,307.493,310.481z"/>
			<path style="fill:#D43D21;" d="M158.066,88.955h16.622v16.623c0,5.783,4.688,10.471,10.47,10.471h0.954h6.047
				c5.785,0,10.472-4.688,10.472-10.471V88.955h16.62c5.783,0,10.47-4.687,10.47-10.468v-7.004c0-5.781-4.687-10.468-10.47-10.468
				h-16.62v-16.62c0-5.782-4.687-10.47-10.472-10.47h-6.047h-0.954c-5.781,0-10.47,4.688-10.47,10.47v16.621h-16.622
				c-5.78,0-10.468,4.687-10.468,10.468v7.004C147.598,84.269,152.286,88.955,158.066,88.955z"/>
		</g>
	</g>
</g>
<g>
</g>
<g>
</g>
<g>
</g>
<g>
</g>
<g>
</g>
<g>
</g>
<g>
</g>
<g>
</g>
<g>
</g>
<g>
</g>
<g>
</g>
<g>
</g>
<g>
</g>
<g>
</g>
<g>
</g>
</svg>
